<?xml version="1.0" encoding="UTF-8"?>
<svg width="180px" height="44px" viewBox="0 0 180 44" version="1.1" xmlns="http://www.w3.org/2000/svg" xmlns:xlink="http://www.w3.org/1999/xlink">
    <title>logo</title>
    <g id="web" stroke="none" stroke-width="1" fill="none" fill-rule="evenodd">
        <g id="Konnect" transform="translate(-120.000000, -18.000000)">
            <g id="logo" transform="translate(119.999950, 18.000000)">
                <rect id="矩形" fill="#D8D8D8" opacity="0" x="4.99710609e-05" y="0" width="180" height="44"></rect>
                <path d="M33.0977994,8.55777366 C33.6045716,12.7930598 30.3985173,15.356164 27.1498283,15.4710029 L26.9508902,15.4749016 C26.5530656,15.4766877 26.1557249,15.4415277 25.7656063,15.3679966 C25.2841971,15.2772904 24.8104265,15.2356017 24.3489409,15.239691 L24.1192265,15.2455342 C23.7381748,15.2615942 23.36619,15.3090599 23.0059514,15.386018 L22.7912558,15.4356807 C20.5164842,16.0031733 18.7447797,17.763086 18.1784522,20.2138845 C17.6462746,22.5169014 18.5239521,24.7432183 20.1138148,26.1899777 L20.2649393,26.3233635 C21.183906,27.1093692 22.3213221,27.6417538 23.5530217,27.7954239 L23.7590698,27.8175113 C24.379948,27.873131 25.0226695,27.8323382 25.6717129,27.6794963 C26.7288286,27.430587 27.7764797,27.1976118 28.8368999,27.1818193 L29.1554196,27.1837316 C29.6870127,27.1985598 30.222359,27.2727149 30.7642326,27.4313529 C33.4808991,28.2268719 35.4490949,30.8068087 35.6096891,33.575745 C35.6335523,33.9861833 35.617601,34.4014253 35.5583454,34.8156154 C35.2706988,36.826303 34.1675304,38.5116456 32.6275489,39.5781905 C31.5786872,40.3047186 30.3269108,40.7441846 28.9921382,40.8036887 L28.8079756,40.8091254 L28.6224098,40.8094483 C27.1908429,40.7908474 25.654901,40.301818 24.409413,39.3264999 C22.7933267,38.0611218 21.6660952,35.9770359 21.8900751,33.0397855 C22.0942712,30.9371269 21.5789351,29.0657292 20.0043528,27.5910877 C18.8171344,26.479115 17.4321438,25.9178119 15.8616548,25.8672092 L15.5650008,25.8637489 L15.2640501,25.8720942 C15.1630082,25.8768722 15.0612476,25.8836256 14.9587713,25.8923447 C14.6096161,25.9220639 14.2536228,25.951034 13.8977265,25.9651893 L13.5421026,25.9738604 C13.0686877,25.9774816 12.5995547,25.946472 12.1511422,25.8474911 C10.17034,25.4097771 8.61280183,23.0289063 8.88784826,21.0982365 C9.02716143,20.12 9.4182988,19.2594171 9.98904211,18.5887146 C10.2580737,18.2725815 10.5670586,17.9985848 10.9084005,17.7743592 C11.6207956,17.306366 12.4740275,17.0551912 13.3993784,17.0895493 C13.5787629,17.0962757 13.7570829,17.100319 13.9342029,17.1011978 L14.1989472,17.1000076 C16.0457081,17.07457 17.7517876,16.6700457 19.141098,15.2521164 C20.475892,13.8898587 21.1327616,12.2800238 20.9357509,10.3555143 C20.8545598,9.56252162 20.8844401,8.81300471 21.0163935,8.11867352 C21.3557482,6.33271008 22.3706472,4.91165621 23.9078689,4.0551723 C24.2326046,3.87432072 24.5805811,3.71861901 24.9504142,3.58997985 C25.3836104,3.43920999 25.8467751,3.32566133 26.337606,3.2522611 C29.6191138,2.76160191 32.6996004,5.23054831 33.0977994,8.55777366 Z M5.39619832,6.83002372 L5.6166534,6.83605163 C6.47780021,6.87559273 7.27270396,7.10199427 7.96582022,7.4800546 C9.62299884,8.3841262 10.6982795,10.1547737 10.7062461,12.311358 C10.7526998,13.8272901 10.1780433,15.092315 9.01903839,16.0380036 C6.63264581,17.985504 5.88606073,21.2584833 6.89681353,24.0322416 C7.23741313,24.9670192 7.77764612,25.8450889 8.52196632,26.5966163 C9.79388825,27.880843 9.9865891,29.6613751 9.2045165,31.1885076 C8.99329262,31.60099 8.71133843,31.9944728 8.36049769,32.354794 C7.59575637,33.1401885 6.53492932,33.5556922 5.46202096,33.5863521 L5.24727344,33.5873135 C4.3171402,33.5693428 3.39217233,33.2615848 2.65726122,32.6543508 C2.01235596,32.1214724 1.5616614,31.4332334 1.31828543,30.6875783 C0.908516055,29.4321764 1.08644379,28.0140655 1.91461914,26.9006019 C2.36127717,26.3000563 2.87878555,25.7452968 3.27180451,25.1127843 C3.55189943,24.6621005 3.77475876,24.1930544 3.94141282,23.7134992 C4.81226956,21.2072876 4.14831943,18.4142678 2.09630686,16.454939 C0.929782478,15.3412576 0.0839227963,14.0780641 0.00622134397,12.4329323 C-0.00139287612,12.2718657 -0.0019103615,12.1122302 0.00438760458,11.9543214 C0.115659362,9.16311753 2.3563708,6.91145423 5.17306715,6.83219174 L5.39619832,6.83002372 Z" id="形状结合" fill="#FFFFFF"></path>
                <path d="M51.683945,12.3843951 C51.2021265,12.3843951 50.7765276,12.5499058 50.4593994,12.8828904 C50.1468581,13.2110587 49.9999218,13.6445209 49.9999218,14.1420863 L49.9999218,29.8579137 C49.9999218,30.3554791 50.1468581,30.7889413 50.4593994,31.1171096 C50.7765276,31.4500942 51.2021265,31.6156049 51.683945,31.6156049 C52.179475,31.6156049 52.6131861,31.4529633 52.9330467,31.1171096 L53.0569083,30.9701396 C53.2845711,30.6637867 53.3925243,30.2843983 53.3925243,29.8579137 L53.3912319,24.4051936 L55.7822089,22.4510546 L56.2682388,22.7567042 C57.6228585,23.6360847 58.7075177,24.5894653 59.5249509,25.6144008 C60.5190504,26.8608486 61.2664587,28.4134546 61.7638635,30.2787225 C62.011545,31.1056119 62.5940694,31.5910489 63.3971476,31.5910489 C63.8341376,31.5910489 64.2267027,31.4468413 64.5320821,31.1575346 C64.8517576,30.8546841 65.007503,30.4448279 65.007503,29.9806936 L64.9769589,29.6880628 C64.6232537,27.5968046 63.8137724,25.750312 62.54764,24.1261698 L62.2504985,23.7586264 C61.2316023,22.5423943 59.9285343,21.4152192 58.3435036,20.3749611 L58.2623629,20.3237312 L64.0297912,15.2911382 C64.3916784,14.9597226 64.5900513,14.5629767 64.5900513,14.1175303 C64.5900513,13.682092 64.4260883,13.2885809 64.1173669,12.9798594 C63.7959257,12.6584183 63.3963819,12.482619 62.95514,12.482619 L62.7708044,12.4943381 C62.4672476,12.5331646 62.1825195,12.66728 61.9238629,12.8789081 L53.3912319,20.2345543 L53.3925243,14.1420863 C53.3925243,13.6445209 53.245588,13.2110587 52.9330467,12.8828904 C52.6131861,12.5470367 52.179475,12.3843951 51.683945,12.3843951 Z M75.3677646,12.3843951 C77.1488467,12.3843951 78.767126,12.7800733 80.2103358,13.5729478 C81.6622447,14.3706014 82.8095303,15.5043896 83.6413756,16.9623549 C84.4720287,18.4182309 84.8851456,20.1017933 84.8851456,22 C84.8851456,23.8815872 84.4720907,25.5604555 83.6423833,27.0235954 C82.8106088,28.4903806 81.6630112,29.6289775 80.2103358,30.4270522 C78.767126,31.2199267 77.1488467,31.6156049 75.3677646,31.6156049 C73.5866825,31.6156049 71.9684032,31.2199267 70.5251935,30.4270522 C69.0725181,29.6289775 67.9249205,28.4903806 67.0931459,27.0235954 C66.2634386,25.5604555 65.8503837,23.8815872 65.8503837,22 C65.8503837,20.1017933 66.2635005,18.4182309 67.0941537,16.9623549 C67.9259989,15.5043896 69.0732846,14.3706014 70.5251935,13.5729478 C71.9684032,12.7800733 73.5866825,12.3843951 75.3677646,12.3843951 Z M75.3186527,15.5068818 C74.1367058,15.5068818 73.0909911,15.7619342 72.16919,16.2700135 C71.2621942,16.7699325 70.5541493,17.4957675 70.0346397,18.4626327 C69.5091964,19.440541 69.2429862,20.6163027 69.2429862,22 C69.2429862,23.3981894 69.5124954,24.5759077 70.0436143,25.5435628 C70.571222,26.5048205 71.2845636,27.2288623 72.193746,27.7299865 C73.1151386,28.2378406 74.1690701,28.4931182 75.3677646,28.4931182 C76.5664592,28.4931182 77.6203907,28.2378406 78.5417833,27.7299865 C79.4509657,27.2288623 80.1643073,26.5048205 80.6919149,25.5435628 C81.2230339,24.5759077 81.4925431,23.3981894 81.4925431,22 C81.4925431,20.5875398 81.2158597,19.3996457 80.6704732,18.4252219 C80.1287435,17.4573315 79.4023825,16.7380916 78.4808336,16.2523139 C77.5388249,15.7557512 76.4884497,15.5068818 75.3186527,15.5068818 Z M94.6560638,12.3843951 C93.0839425,12.3843951 91.6969183,12.679697 90.5030941,13.2766091 C89.288095,13.8841087 88.3437695,14.7633083 87.6858604,15.9030663 C87.0336735,17.0329112 86.7102655,18.3493182 86.7102655,19.8390737 L86.7102655,29.8579137 C86.7102655,30.3554791 86.8572019,30.7889413 87.1697431,31.1171096 C87.4868713,31.4500942 87.9124702,31.6156049 88.3942888,31.6156049 C88.8898188,31.6156049 89.3235298,31.4529633 89.6433905,31.1171096 C89.9559317,30.7889413 90.1028681,30.3554791 90.1028681,29.8579137 L90.1028681,19.7654058 C90.1028681,18.4149121 90.5013007,17.39329 91.295107,16.6469763 C92.099361,15.8908402 93.205859,15.5068818 94.6560638,15.5068818 C96.1396846,15.5068818 97.2497117,15.8838722 98.0271517,16.6203942 C98.7955956,17.3483937 99.1847035,18.3791884 99.1847035,19.7654058 L99.1847035,29.8579137 C99.1847035,30.3624403 99.3412308,30.8022073 99.6696659,31.1306425 C99.9928513,31.4538279 100.416553,31.6156049 100.893283,31.6156049 C101.394185,31.6156049 101.829974,31.4492124 102.143598,31.1025762 C102.439874,30.7751125 102.577306,30.3483507 102.577306,29.8579137 L102.577306,19.8390737 C102.577306,18.3493182 102.253898,17.0329112 101.601711,15.9030663 C100.944336,14.7642327 100.004976,13.8853269 98.7988684,13.2776696 C97.6124509,12.6799326 96.2287982,12.3843951 94.6560638,12.3843951 Z M113.453243,12.3843951 C111.881122,12.3843951 110.494098,12.679697 109.300274,13.2766091 C108.085275,13.8841087 107.140949,14.7633083 106.48304,15.9030663 C105.830853,17.0329112 105.507445,18.3493182 105.507445,19.8390737 L105.507445,29.8579137 C105.507445,30.3554791 105.654381,30.7889413 105.966923,31.1171096 C106.284051,31.4500942 106.70965,31.6156049 107.191468,31.6156049 C107.686998,31.6156049 108.120709,31.4529633 108.44057,31.1171096 C108.753111,30.7889413 108.900048,30.3554791 108.900048,29.8579137 L108.900048,19.7654058 C108.900048,18.4149121 109.29848,17.39329 110.092287,16.6469763 C110.89654,15.8908402 112.003039,15.5068818 113.453243,15.5068818 C114.936864,15.5068818 116.046891,15.8838722 116.824331,16.6203942 C117.592775,17.3483937 117.981883,18.3791884 117.981883,19.7654058 L117.981883,29.8579137 C117.981883,30.3624403 118.13841,30.8022073 118.466845,31.1306425 C118.790031,31.4538279 119.213733,31.6156049 119.690462,31.6156049 C120.191364,31.6156049 120.627154,31.4492124 120.940777,31.1025762 C121.237054,30.7751125 121.374486,30.3483507 121.374486,29.8579137 L121.374486,19.8390737 C121.374486,18.3493182 121.051078,17.0329112 120.398891,15.9030663 C119.741515,14.7642327 118.802156,13.8853269 117.596048,13.2776696 C116.40963,12.6799326 115.025978,12.3843951 113.453243,12.3843951 Z M135.958376,12.6299549 L128.346022,12.6299549 C127.176461,12.6299549 126.218634,12.9577673 125.514408,13.6304608 C124.803918,14.3091378 124.45196,15.233683 124.45196,16.3521245 L124.45196,27.5987635 C124.45196,28.7505755 124.808073,29.6932269 125.530848,30.3734859 C126.243191,31.0439261 127.211357,31.3700451 128.395134,31.3700451 L136.498607,31.3700451 C136.951504,31.3700451 137.348704,31.2585505 137.66841,31.0149644 C138.040455,30.7315021 138.231743,30.3124901 138.231743,29.8333577 C138.231743,28.8534468 137.531282,28.2966703 136.498607,28.2966703 L128.370578,28.2966703 C128.190361,28.2966703 128.085501,28.2530922 127.999773,28.1584955 L127.944877,28.0858615 C127.879308,27.9808443 127.844563,27.8414821 127.844563,27.6478755 L127.843271,23.3635031 L134.092121,23.3647955 C134.545018,23.3647955 134.942217,23.2533009 135.261924,23.0097148 C135.633969,22.7262525 135.825257,22.3072405 135.825257,21.8281081 L135.817181,21.6474702 C135.736863,20.7691612 135.06395,20.2668648 134.092121,20.2668648 L127.843271,20.2668648 L127.844563,16.3521245 C127.844563,16.1101162 127.898852,15.9528649 127.999773,15.8415045 C128.085501,15.7469078 128.190361,15.7033297 128.370578,15.7033297 L135.958376,15.7033297 C136.431342,15.7033297 136.836749,15.5914934 137.15492,15.3369561 C137.50755,15.0548525 137.691511,14.6501378 137.691511,14.1911983 C137.691511,13.2014566 136.994993,12.6299549 135.958376,12.6299549 Z M148.395556,12.3843951 C146.579658,12.3843951 144.962239,12.7809523 143.55623,13.5779892 C142.140701,14.380423 141.04096,15.5254206 140.268339,16.9987917 C139.503635,18.4570633 139.123735,20.1356908 139.123735,22.024556 C139.123735,23.8978077 139.504009,25.5648195 140.269248,27.0152158 C141.041978,28.4798074 142.141452,29.6200026 143.55623,30.4220108 C144.96257,31.2192355 146.58813,31.6156049 148.420112,31.6156049 C149.987585,31.6156049 151.437884,31.3570925 152.766341,30.8380266 C154.119757,30.3092085 155.183555,29.5832688 155.944531,28.6552493 C156.201011,28.3417741 156.341355,27.9831187 156.341355,27.5987635 C156.341355,27.1232114 156.116466,26.7055603 155.726776,26.371541 C155.455447,26.1340745 155.109418,26.0129641 154.730999,26.0129641 C154.22121,26.0129641 153.762645,26.2422467 153.379487,26.6509483 C152.894977,27.2357884 152.263767,27.6717073 151.440318,27.9939265 C150.594633,28.3248466 149.588743,28.4931182 148.420112,28.4931182 C147.193977,28.4931182 146.146374,28.2321236 145.263516,27.7153286 C144.389886,27.2039357 143.725861,26.4798658 143.260211,25.5270745 C142.78284,24.5503002 142.540894,23.3852355 142.540894,22.024556 C142.540894,20.6466556 142.783231,19.4685239 143.261212,18.483148 C143.727538,17.521798 144.388199,16.7940114 145.253622,16.2832702 C146.127491,15.7675438 147.170139,15.5068818 148.395556,15.5068818 C149.479989,15.5068818 150.422363,15.6701278 151.22617,15.9916505 C152.00326,16.3024865 152.602831,16.7366585 153.039235,17.2958012 C153.422836,17.7399785 153.897505,17.9624799 154.436328,17.9624799 C154.768818,17.9624799 155.082297,17.868436 155.357591,17.6849071 C155.806924,17.3644501 156.046683,16.9191834 156.046683,16.4012365 C156.046683,16.0023534 155.91427,15.6382179 155.654363,15.3458227 C154.924486,14.4179478 153.883724,13.675201 152.575675,13.1519814 C151.294831,12.639644 149.899764,12.3843951 148.395556,12.3843951 Z M171.882928,12.6299549 L158.770035,12.6299549 C157.733417,12.6299549 157.0369,13.2014566 157.0369,14.1911983 C157.0369,14.6769424 157.234059,15.099428 157.619467,15.3747191 L157.783778,15.4776124 C158.06742,15.6322315 158.39937,15.7033297 158.770035,15.7033297 L163.61661,15.7020373 L163.617902,29.8579137 C163.617902,30.3483507 163.755334,30.7751125 164.051611,31.1025762 C164.365234,31.4492124 164.801024,31.6156049 165.301926,31.6156049 C165.79236,31.6156049 166.224255,31.4564855 166.550098,31.1306425 L166.680376,30.9832041 C166.920061,30.675238 167.035061,30.290365 167.035061,29.8579137 L167.035061,15.7020373 L171.882928,15.7033297 C172.355895,15.7033297 172.761301,15.5914934 173.079473,15.3369561 C173.432102,15.0548525 173.616063,14.6501378 173.616063,14.1911983 C173.616063,13.2014566 172.919546,12.6299549 171.882928,12.6299549 Z" id="形状结合" fill="#FFFFFF" fill-rule="nonzero"></path>
            </g>
        </g>
    </g>
</svg>